<svg width="40" height="48" viewBox="0 0 40 48" fill="none" xmlns="http://www.w3.org/2000/svg">
<path fill-rule="evenodd" clip-rule="evenodd" d="M14.9622 39.6514C13.9334 39.6514 13.0991 38.8184 13.0976 37.7899L13.0976 37.7869L13.0881 36.0904C13.0881 36.0899 13.0881 36.0894 13.0881 36.0888C13.0837 33.3204 12.0654 30.6235 10.1583 28.5937L10.1583 28.5937C7.91355 26.2047 6.52985 23.0003 6.49929 19.4716C6.43541 12.0815 12.4179 5.95638 19.8074 5.85349C23.746 5.79868 27.3029 7.4292 29.8053 10.0718C30.0723 10.3538 30.5173 10.3659 30.7993 10.0989C31.0813 9.83191 31.0934 9.38688 30.8264 9.10492C28.0651 6.18892 24.1357 4.38688 19.7879 4.44738C11.6239 4.56105 5.02253 11.3208 5.09309 19.4838C5.12684 23.3798 6.65614 26.9201 9.13342 29.5566C10.785 31.3145 11.6783 33.6636 11.6818 36.0924L11.6818 36.0954L11.6914 37.7919C11.6914 37.7924 11.6914 37.793 11.6914 37.7935C11.6948 39.5974 13.1583 41.0577 14.9623 41.0576L25.0619 41.0568C26.8699 41.0567 28.3348 39.5897 28.3323 37.7817L28.3323 37.7788L28.3226 36.0169C28.3226 36.0163 28.3226 36.0158 28.3226 36.0152C28.3195 33.6292 29.1964 31.32 30.8247 29.6011L30.3497 29.1511L30.8247 29.6011C33.3546 26.9303 34.9076 23.3221 34.9076 19.3523C34.9076 16.4707 34.089 13.7781 32.6717 11.4966C32.4667 11.1667 32.0332 11.0654 31.7034 11.2704C31.3735 11.4753 31.2722 11.9088 31.4771 12.2387C32.7602 14.3039 33.5014 16.7406 33.5014 19.3523C33.5014 22.9481 32.0962 26.2139 29.8038 28.634C27.9148 30.6281 26.9124 33.2903 26.9164 36.0189L26.9164 36.0217L26.926 37.7836C26.926 37.784 26.926 37.7844 26.926 37.7848C26.9268 38.8148 26.0921 39.6505 25.0618 39.6505L14.9622 39.6514Z" fill="url(#paint0_linear_84_3493)"/>
<path fill-rule="evenodd" clip-rule="evenodd" d="M17.4218 48C15.6841 48.0002 14.2774 46.5876 14.2849 44.85L17.4218 48ZM17.4218 48L22.5663 47.9994C22.5663 47.9994 22.5663 47.9994 22.5663 47.9994C24.293 47.9993 25.6951 46.6035 25.7026 44.8768L25.7222 40.3571C25.7231 40.1701 25.6493 39.9904 25.5174 39.8579C25.3854 39.7254 25.2061 39.6509 25.019 39.6509L15.0077 39.6519C14.6206 39.652 14.3063 39.9649 14.3046 40.352L14.2849 44.85M15.6912 44.856C15.6912 44.856 15.6912 44.856 15.6912 44.856L15.7078 41.0581L24.3129 41.0572L24.2963 44.8707C24.2922 45.8231 23.5188 46.5931 22.5662 46.5932L17.4216 46.5938C16.4631 46.5939 15.6871 45.8146 15.6912 44.856Z" fill="url(#paint1_linear_84_3493)"/>
<path fill-rule="evenodd" clip-rule="evenodd" d="M16.1928 23.7727C16.2152 24.144 16.5228 24.4336 16.8947 24.4336H23.0981C23.4486 24.4336 23.7455 24.1756 23.7944 23.8286C23.8678 23.3077 24.0249 22.5984 24.3806 21.8192L24.3806 21.8192C24.7538 21.0017 25.2164 20.3898 25.5945 19.9696L25.5947 19.9693C25.8944 19.636 25.9574 19.1483 25.7426 18.7481M17.1061 21.4819C17.3302 22.0451 17.4562 22.5726 17.5261 23.0273L17.1061 21.4819ZM17.5261 23.0273H22.509C22.6206 22.5048 22.802 21.8909 23.1013 21.2353C23.4964 20.3697 23.9753 19.6978 24.3926 19.2078C23.8413 18.1935 23.2067 17.1225 22.4763 16.0168L22.4763 16.0168C21.6459 14.7597 20.806 13.631 19.9918 12.6261C19.1593 13.6382 18.2967 14.7884 17.4474 16.0827C16.7444 17.1543 16.1378 18.1917 15.6142 19.1723C16.0959 19.6736 16.6892 20.4344 17.106 21.4818M15.4983 19.3911C15.4983 19.3911 15.4983 19.391 15.4983 19.391L15.4983 19.3911ZM24.549 19.0292C24.5489 19.0293 24.5488 19.0293 24.5487 19.0294C24.5488 19.0293 24.5489 19.0293 24.549 19.0292ZM24.5035 19.413C24.5035 19.4131 24.5035 19.4131 24.5035 19.4131L24.5035 19.413ZM16.1928 23.7727C16.1656 23.3195 16.0748 22.6936 15.7995 22.0019L16.1928 23.7727ZM15.7995 22.0019L15.7995 22.0018L15.7995 22.0019ZM15.7995 22.0018C15.4226 21.0549 14.8638 20.3972 14.4535 19.9992L15.7995 22.0018ZM14.4533 19.999C14.1085 19.6647 14.0366 19.1492 14.2537 18.7365L14.4533 19.999ZM25.7426 18.748C25.1472 17.6385 24.4549 16.4606 23.6496 15.2417C22.7662 13.9043 21.8724 12.7078 21.0081 11.6468M14.2538 18.7363C14.8226 17.6549 15.4895 16.5036 16.2716 15.3114L14.2538 18.7363ZM18.9831 11.639C18.0975 12.7093 17.1773 13.931 16.2717 15.3113L16.2716 15.3114M21.0081 11.6468C20.4863 11.0062 19.5098 11.0028 18.9833 11.6388L18.9831 11.639" fill="url(#paint2_linear_84_3493)"/>
<path fill-rule="evenodd" clip-rule="evenodd" d="M16.1952 26.5713C16.1952 26.9596 16.51 27.2744 16.8983 27.2744H23.1018C23.4901 27.2744 23.8049 26.9596 23.8049 26.5713V23.7306C23.8049 23.3422 23.4901 23.0274 23.1018 23.0274H16.8983C16.51 23.0274 16.1952 23.3422 16.1952 23.7306V26.5713ZM17.6014 25.8682V24.4337H22.3986V25.8682H17.6014Z" fill="url(#paint3_linear_84_3493)"/>
<path fill-rule="evenodd" clip-rule="evenodd" d="M23.8653 41.0566C24.2536 41.0566 24.5684 40.7418 24.5684 40.3535V27.3251C24.5684 26.5194 23.9145 25.869 23.1114 25.869H16.8887C16.0856 25.869 15.4316 26.5194 15.4316 27.3251V37.3163C15.4316 37.7046 15.7464 38.0194 16.1348 38.0194C16.5231 38.0194 16.8379 37.7046 16.8379 37.3163V27.3251C16.8379 27.2986 16.8597 27.2753 16.8887 27.2753H23.1114C23.1404 27.2753 23.1622 27.2986 23.1622 27.3251V40.3535C23.1622 40.7418 23.477 41.0566 23.8653 41.0566Z" fill="url(#paint4_linear_84_3493)"/>
<path fill-rule="evenodd" clip-rule="evenodd" d="M20 20.248C20.3883 20.248 20.7031 19.9332 20.7031 19.5449V11.868C20.7031 11.4797 20.3883 11.1649 20 11.1649C19.6117 11.1649 19.2969 11.4797 19.2969 11.868V19.5449C19.2969 19.9332 19.6117 20.248 20 20.248Z" fill="url(#paint5_linear_84_3493)"/>
<path fill-rule="evenodd" clip-rule="evenodd" d="M15.4321 29.8281C15.4321 30.2165 15.7469 30.5312 16.1353 30.5312H23.8648C24.2532 30.5312 24.568 30.2165 24.568 29.8281C24.568 29.4398 24.2532 29.125 23.8648 29.125H16.1353C15.7469 29.125 15.4321 29.4398 15.4321 29.8281Z" fill="url(#paint6_linear_84_3493)"/>
<path fill-rule="evenodd" clip-rule="evenodd" d="M19.9935 2.70703C20.3819 2.70703 20.6967 2.39223 20.6967 2.00391V0.703594C20.6967 0.315269 20.3819 0.000468731 19.9935 0.000468731C19.6052 0.000468731 19.2904 0.315269 19.2904 0.703594V2.00391C19.2904 2.39223 19.6052 2.70703 19.9935 2.70703Z" fill="url(#paint7_linear_84_3493)"/>
<path fill-rule="evenodd" clip-rule="evenodd" d="M36.5065 19.7656C36.5065 20.154 36.8213 20.4688 37.2096 20.4688H38.4694C38.8577 20.4688 39.1725 20.154 39.1725 19.7656C39.1725 19.3773 38.8577 19.0625 38.4694 19.0625H37.2096C36.8213 19.0625 36.5065 19.3773 36.5065 19.7656Z" fill="url(#paint8_linear_84_3493)"/>
<path fill-rule="evenodd" clip-rule="evenodd" d="M0.827393 19.7656C0.827393 20.154 1.14219 20.4688 1.53052 20.4688H2.79033C3.17866 20.4688 3.49345 20.154 3.49345 19.7656C3.49345 19.3773 3.17866 19.0625 2.79033 19.0625H1.53052C1.14219 19.0625 0.827393 19.3773 0.827393 19.7656Z" fill="url(#paint9_linear_84_3493)"/>
<path fill-rule="evenodd" clip-rule="evenodd" d="M31.6797 7.71103C31.9586 7.98125 32.4037 7.97421 32.6739 7.69533L33.5648 6.77583C33.835 6.49694 33.828 6.0518 33.5491 5.78158C33.2702 5.51136 32.8251 5.51839 32.5549 5.79728L31.664 6.71678C31.3938 6.99567 31.4008 7.44081 31.6797 7.71103Z" fill="url(#paint10_linear_84_3493)"/>
<path fill-rule="evenodd" clip-rule="evenodd" d="M6.45079 33.7491C6.72968 34.0193 7.17482 34.0123 7.44504 33.7334L8.33594 32.8139C8.60616 32.535 8.59913 32.0899 8.32024 31.8197C8.04135 31.5494 7.59621 31.5565 7.326 31.8354L6.43509 32.7549C6.16487 33.0338 6.1719 33.4789 6.45079 33.7491Z" fill="url(#paint11_linear_84_3493)"/>
<path fill-rule="evenodd" clip-rule="evenodd" d="M33.5491 33.7491C33.828 33.4789 33.835 33.0338 33.5648 32.7549L32.6739 31.8354C32.4037 31.5565 31.9586 31.5494 31.6797 31.8197C31.4008 32.0899 31.3938 32.535 31.664 32.8139L32.5549 33.7334C32.8251 34.0123 33.2702 34.0193 33.5491 33.7491Z" fill="url(#paint12_linear_84_3493)"/>
<path fill-rule="evenodd" clip-rule="evenodd" d="M8.32024 7.71103C8.59913 7.44081 8.60616 6.99567 8.33594 6.71678L7.44504 5.79728C7.17482 5.51839 6.72968 5.51136 6.45079 5.78158C6.1719 6.0518 6.16487 6.49694 6.43509 6.77583L7.326 7.69533C7.59621 7.97421 8.04135 7.98125 8.32024 7.71103Z" fill="url(#paint13_linear_84_3493)"/>
<path fill-rule="evenodd" clip-rule="evenodd" d="M14.285 43.5918C14.285 43.9801 14.5998 44.2949 14.9882 44.2949H22.2887C22.677 44.2949 22.9918 43.9801 22.9918 43.5918C22.9918 43.2035 22.677 42.8887 22.2887 42.8887H14.9882C14.5998 42.8887 14.285 43.2035 14.285 43.5918Z" fill="url(#paint14_linear_84_3493)"/>
<defs>
<linearGradient id="paint0_linear_84_3493" x1="5.09253" y1="22.7518" x2="34.9076" y2="22.7518" gradientUnits="userSpaceOnUse">
<stop stop-color="#0CBAF1"/>
<stop offset="1" stop-color="#E95CE9"/>
</linearGradient>
<linearGradient id="paint1_linear_84_3493" x1="14.2849" y1="43.8255" x2="25.7222" y2="43.8255" gradientUnits="userSpaceOnUse">
<stop stop-color="#0CBAF1"/>
<stop offset="1" stop-color="#E95CE9"/>
</linearGradient>
<linearGradient id="paint2_linear_84_3493" x1="14.1305" y1="17.7988" x2="25.8696" y2="17.7988" gradientUnits="userSpaceOnUse">
<stop stop-color="#0CBAF1"/>
<stop offset="1" stop-color="#E95CE9"/>
</linearGradient>
<linearGradient id="paint3_linear_84_3493" x1="16.1952" y1="25.1509" x2="23.8049" y2="25.1509" gradientUnits="userSpaceOnUse">
<stop stop-color="#0CBAF1"/>
<stop offset="1" stop-color="#E95CE9"/>
</linearGradient>
<linearGradient id="paint4_linear_84_3493" x1="15.4316" y1="33.4628" x2="24.5684" y2="33.4628" gradientUnits="userSpaceOnUse">
<stop stop-color="#0CBAF1"/>
<stop offset="1" stop-color="#E95CE9"/>
</linearGradient>
<linearGradient id="paint5_linear_84_3493" x1="19.2969" y1="15.7065" x2="20.7031" y2="15.7065" gradientUnits="userSpaceOnUse">
<stop stop-color="#0CBAF1"/>
<stop offset="1" stop-color="#E95CE9"/>
</linearGradient>
<linearGradient id="paint6_linear_84_3493" x1="15.4321" y1="29.8281" x2="24.568" y2="29.8281" gradientUnits="userSpaceOnUse">
<stop stop-color="#0CBAF1"/>
<stop offset="1" stop-color="#E95CE9"/>
</linearGradient>
<linearGradient id="paint7_linear_84_3493" x1="19.2904" y1="1.35375" x2="20.6967" y2="1.35375" gradientUnits="userSpaceOnUse">
<stop stop-color="#0CBAF1"/>
<stop offset="1" stop-color="#E95CE9"/>
</linearGradient>
<linearGradient id="paint8_linear_84_3493" x1="36.5065" y1="19.7656" x2="39.1725" y2="19.7656" gradientUnits="userSpaceOnUse">
<stop stop-color="#0CBAF1"/>
<stop offset="1" stop-color="#E95CE9"/>
</linearGradient>
<linearGradient id="paint9_linear_84_3493" x1="0.827393" y1="19.7656" x2="3.49345" y2="19.7656" gradientUnits="userSpaceOnUse">
<stop stop-color="#0CBAF1"/>
<stop offset="1" stop-color="#E95CE9"/>
</linearGradient>
<linearGradient id="paint10_linear_84_3493" x1="31.4658" y1="6.7463" x2="33.763" y2="6.7463" gradientUnits="userSpaceOnUse">
<stop stop-color="#0CBAF1"/>
<stop offset="1" stop-color="#E95CE9"/>
</linearGradient>
<linearGradient id="paint11_linear_84_3493" x1="6.23694" y1="32.7844" x2="8.5341" y2="32.7844" gradientUnits="userSpaceOnUse">
<stop stop-color="#0CBAF1"/>
<stop offset="1" stop-color="#E95CE9"/>
</linearGradient>
<linearGradient id="paint12_linear_84_3493" x1="31.4658" y1="32.7844" x2="33.763" y2="32.7844" gradientUnits="userSpaceOnUse">
<stop stop-color="#0CBAF1"/>
<stop offset="1" stop-color="#E95CE9"/>
</linearGradient>
<linearGradient id="paint13_linear_84_3493" x1="6.23694" y1="6.7463" x2="8.5341" y2="6.7463" gradientUnits="userSpaceOnUse">
<stop stop-color="#0CBAF1"/>
<stop offset="1" stop-color="#E95CE9"/>
</linearGradient>
<linearGradient id="paint14_linear_84_3493" x1="14.285" y1="43.5918" x2="22.9918" y2="43.5918" gradientUnits="userSpaceOnUse">
<stop stop-color="#0CBAF1"/>
<stop offset="1" stop-color="#E95CE9"/>
</linearGradient>
</defs>
</svg>
