<svg width="24" height="24" viewBox="0 0 24 24" fill="none" xmlns="http://www.w3.org/2000/svg">
<path d="M11.9962 2.87644C14.9677 2.87644 15.3196 2.88757 16.4934 2.94109C17.1992 2.94973 17.8983 3.07933 18.5602 3.32425C19.0403 3.50939 19.4762 3.79299 19.8401 4.15681C20.2039 4.52062 20.4875 4.95659 20.6726 5.43665C20.9175 6.09862 21.0471 6.79769 21.0558 7.50347C21.1088 8.67731 21.1204 9.0292 21.1204 12.0007C21.1204 14.9721 21.1093 15.324 21.0558 16.4978C21.0471 17.2036 20.9175 17.9027 20.6726 18.5647C20.4875 19.0447 20.2039 19.4807 19.8401 19.8445C19.4762 20.2083 19.0403 20.4919 18.5602 20.6771C17.8983 20.922 17.1992 21.0516 16.4934 21.0602C15.3201 21.1132 14.9682 21.1249 11.9962 21.1249C9.02424 21.1249 8.67235 21.1137 7.49903 21.0602C6.79325 21.0516 6.09418 20.922 5.43221 20.6771C4.95216 20.4919 4.51619 20.2083 4.15237 19.8445C3.78855 19.4807 3.50495 19.0447 3.31981 18.5647C3.07489 17.9027 2.94529 17.2036 2.93666 16.4978C2.88366 15.324 2.872 14.9721 2.872 12.0007C2.872 9.0292 2.88313 8.67731 2.93666 7.50347C2.94529 6.79769 3.07489 6.09862 3.31981 5.43665C3.50495 4.95659 3.78855 4.52062 4.15237 4.15681C4.51619 3.79299 4.95216 3.50939 5.43221 3.32425C6.09418 3.07933 6.79325 2.94973 7.49903 2.94109C8.67288 2.8881 9.02477 2.87644 11.9962 2.87644ZM11.9962 0.871094C8.97548 0.871094 8.59497 0.883813 7.40788 0.937868C6.48419 0.95624 5.57031 1.13113 4.70511 1.4551C3.96291 1.73474 3.29066 2.17296 2.73527 2.73918C2.16854 3.29477 1.72995 3.9674 1.45014 4.71008C1.12617 5.57528 0.951274 6.48916 0.932902 7.41284C0.879906 8.59888 0.867188 8.97939 0.867188 12.0001C0.867188 15.0209 0.879906 15.4014 0.933962 16.5885C0.952334 17.5121 1.12723 18.426 1.4512 19.2912C1.7307 20.0338 2.16892 20.7064 2.73527 21.2621C3.29097 21.8285 3.96359 22.2667 4.70617 22.5462C5.57137 22.8702 6.48525 23.0451 7.40894 23.0634C8.59603 23.1164 8.97495 23.1302 11.9973 23.1302C15.0196 23.1302 15.3985 23.1175 16.5856 23.0634C17.5093 23.0451 18.4232 22.8702 19.2884 22.5462C20.0274 22.2597 20.6986 21.8222 21.2589 21.2615C21.8192 20.7008 22.2563 20.0294 22.5423 19.2902C22.8663 18.425 23.0412 17.5111 23.0595 16.5874C23.1125 15.4014 23.1252 15.0209 23.1252 12.0001C23.1252 8.97939 23.1125 8.59888 23.0585 7.41178C23.0401 6.4881 22.8652 5.57422 22.5412 4.70902C22.2617 3.96644 21.8235 3.29382 21.2572 2.73812C20.7015 2.17177 20.0288 1.73354 19.2863 1.45404C18.4211 1.13007 17.5072 0.95518 16.5835 0.936808C15.3975 0.883813 15.017 0.871094 11.9962 0.871094Z" fill="white"/>
<path d="M12.0002 6.28516C10.8699 6.28516 9.76491 6.62034 8.82508 7.24831C7.88525 7.87629 7.15275 8.76885 6.72019 9.81313C6.28763 10.8574 6.17446 12.0065 6.39497 13.1151C6.61549 14.2237 7.15979 15.242 7.95905 16.0413C8.75831 16.8406 9.77663 17.3849 10.8852 17.6054C11.9938 17.8259 13.1429 17.7127 14.1872 17.2802C15.2315 16.8476 16.1241 16.1151 16.752 15.1753C17.38 14.2354 17.7152 13.1305 17.7152 12.0002C17.7152 10.4845 17.1131 9.03082 16.0413 7.95905C14.9695 6.88727 13.5159 6.28516 12.0002 6.28516ZM12.0002 15.7099C11.2665 15.7099 10.5492 15.4923 9.93919 15.0847C9.32914 14.677 8.85366 14.0977 8.57289 13.4198C8.29211 12.742 8.21865 11.9961 8.36178 11.2765C8.50492 10.5568 8.85824 9.89585 9.37704 9.37704C9.89585 8.85823 10.5569 8.50492 11.2765 8.36178C11.9961 8.21864 12.742 8.29211 13.4198 8.57288C14.0977 8.85366 14.677 9.32914 15.0847 9.93919C15.4923 10.5492 15.7099 11.2665 15.7099 12.0002C15.7099 12.984 15.319 13.9276 14.6233 14.6233C13.9276 15.319 12.984 15.7099 12.0002 15.7099Z" fill="white"/>
<path d="M17.937 7.39558C18.6746 7.39558 19.2725 6.79766 19.2725 6.06009C19.2725 5.32253 18.6746 4.72461 17.937 4.72461C17.1995 4.72461 16.6016 5.32253 16.6016 6.06009C16.6016 6.79766 17.1995 7.39558 17.937 7.39558Z" fill="white"/>
</svg>
