<svg width="20" height="16" viewBox="0 0 20 16" fill="none" xmlns="http://www.w3.org/2000/svg">
<path d="M19.2009 2.04325C18.5125 2.3492 17.7859 2.54042 17.021 2.65515C17.7859 2.19623 18.3978 1.46959 18.6655 0.589974C17.9389 1.01066 17.1357 1.31661 16.2561 1.50783C15.5677 0.781195 14.5734 0.322266 13.5025 0.322266C11.4374 0.322266 9.75462 2.00501 9.75462 4.07019C9.75462 4.37614 9.79287 4.64385 9.86935 4.91156C6.77158 4.75858 3.97976 3.26706 2.1058 0.972415C1.79985 1.54608 1.60863 2.15798 1.60863 2.84638C1.60863 4.14667 2.25878 5.294 3.29137 5.98239C2.67947 5.94415 2.1058 5.79117 1.57039 5.52346V5.56171C1.57039 7.39742 2.87069 8.92719 4.59167 9.27138C4.28572 9.34787 3.94152 9.38611 3.59732 9.38611C3.36786 9.38611 3.10015 9.34787 2.87069 9.30963C3.36786 10.8011 4.74465 11.9102 6.38914 11.9102C5.08884 12.9046 3.48259 13.5165 1.72336 13.5165C1.41741 13.5165 1.11146 13.5165 0.84375 13.4782C2.52649 14.5491 4.47694 15.161 6.61861 15.161C13.5408 15.161 17.327 9.42436 17.327 4.45263C17.327 4.29965 17.327 4.10843 17.327 3.95545C18.0536 3.45828 18.7037 2.80813 19.2009 2.04325Z" fill="white"/>
</svg>
