<svg width="64" height="60" viewBox="0 0 64 60" fill="none" xmlns="http://www.w3.org/2000/svg">
<path d="M57.6019 40.8275C57.6019 40.8275 57.618 40.8275 57.6226 40.8275C57.6326 40.8206 57.6418 40.8129 57.651 40.8045C57.6625 40.7961 57.6732 40.7869 57.6832 40.7761C57.6985 40.7623 57.7115 40.747 57.7222 40.7302L57.746 40.698C57.7567 40.6781 57.7659 40.6566 57.7736 40.6352C57.7782 40.626 57.782 40.6152 57.7851 40.6053C57.7942 40.5723 57.7988 40.5394 57.7988 40.5057V12.115C57.7981 12.0399 57.7766 11.9702 57.7345 11.9074C57.6923 11.8445 57.6372 11.7978 57.5675 11.7679L32.2399 0.234206C32.2085 0.174446 32.1648 0.125412 32.1073 0.0886363C32.0139 0.0273438 31.9127 0.0120206 31.8039 0.0426669C31.7618 0.0304084 31.7189 0.0258112 31.6752 0.0288761C31.6315 0.0319405 31.5894 0.0419007 31.5496 0.0595223C31.5097 0.0771438 31.4737 0.100895 31.4415 0.130775C31.4094 0.160655 31.3841 0.195132 31.3642 0.234206L6.03426 11.7679C5.96454 11.7978 5.90861 11.8445 5.86647 11.9074C5.82434 11.9702 5.80288 12.0399 5.80212 12.115V40.4965C5.80212 40.5302 5.80671 40.5631 5.81667 40.5961C5.81667 40.6076 5.81667 40.6145 5.82817 40.626C5.83966 40.6375 5.84426 40.6673 5.85575 40.6888L5.87873 40.721C5.89099 40.7371 5.90402 40.7531 5.91857 40.7669L5.95075 40.7953C5.95918 40.8029 5.96914 40.8114 5.97833 40.8183H5.99902L6.01817 40.8321L31.5358 53.1733C31.5879 53.1994 31.6438 53.2116 31.702 53.2108C31.7603 53.2108 31.8147 53.1986 31.8668 53.1733L57.5836 40.8321L57.6019 40.8275ZM49.3841 43.9281L41.4812 40.1632L48.3184 36.9024C48.3583 36.8841 48.3866 36.8549 48.4042 36.8143L56.5132 40.5057L49.3841 43.9281ZM40.1772 48.3481L32.2445 44.5671L41.0484 40.3739L48.9513 44.1411L40.1772 48.3481ZM14.6275 44.1549L22.5626 40.3739L31.3665 44.5671L23.3662 48.3779L14.6275 44.1549ZM7.0839 40.508L15.1929 36.8143C15.2097 36.8549 15.2381 36.8848 15.2779 36.9024L22.1151 40.1632L14.1869 43.9419L7.0839 40.508ZM24.5944 32.5354L31.3573 35.7586L22.5534 39.9525L15.5982 36.632L24.5944 32.5354ZM25.0579 32.3293L31.8108 29.257L38.5622 32.3293L31.8085 35.5479L25.0579 32.3293ZM39.0165 32.5354L48.015 36.632L41.0484 39.9525L32.2445 35.7586L39.0165 32.5354ZM23.0046 40.1632L31.8085 35.9693L40.6124 40.1632L31.8085 44.3541L23.0046 40.1632ZM57.0342 21.0277L56.6266 20.8423C56.6036 20.8316 56.5791 20.8262 56.5538 20.8254C56.5286 20.8247 56.504 20.8285 56.4803 20.8369C56.4565 20.8461 56.4359 20.8591 56.4175 20.8768C56.3991 20.8944 56.3845 20.9143 56.3738 20.9373C56.3531 20.9855 56.3516 21.0338 56.37 21.0829C56.3883 21.1319 56.4213 21.1679 56.4688 21.1893L57.0342 21.4468V31.2995L56.6266 31.1141C56.6036 31.1034 56.5791 31.098 56.5538 31.0965C56.5286 31.0957 56.504 31.0996 56.4803 31.1088C56.4565 31.118 56.4359 31.131 56.4175 31.1478C56.3991 31.1655 56.3845 31.1854 56.3738 31.2091C56.3531 31.2566 56.3516 31.3057 56.37 31.3547C56.3883 31.4037 56.4213 31.439 56.4688 31.4612L57.0342 31.7186V39.9035L32.2835 28.6364V20.4508L32.4896 20.5458C32.5379 20.568 32.5869 20.5703 32.6367 20.5519C32.6865 20.5343 32.7225 20.5013 32.7448 20.4531C32.7662 20.4048 32.7678 20.3565 32.7494 20.3067C32.731 20.2569 32.6973 20.2209 32.6498 20.1987L32.2835 20.0317V10.1797L32.4896 10.2747C32.5379 10.2969 32.5869 10.2984 32.6367 10.28C32.6865 10.2609 32.7225 10.2279 32.7448 10.1797C32.7655 10.1314 32.7662 10.0831 32.7478 10.0341C32.7294 9.98508 32.6973 9.94983 32.6498 9.92685L32.2835 9.7537V1.09383L57.0342 12.3609V21.0277ZM31.5189 1.00343V9.57059L30.7543 9.91995C30.7145 9.93911 30.6846 9.96899 30.6647 10.0088C30.6447 10.0487 30.6394 10.0908 30.6486 10.1345C30.6585 10.1781 30.68 10.2142 30.7145 10.2425C30.7489 10.2709 30.7888 10.2854 30.8332 10.2862C30.8608 10.2854 30.8876 10.2793 30.9121 10.2678L31.5189 9.98967V19.8516L30.7543 20.2033C30.7313 20.214 30.7114 20.2278 30.6938 20.2462C30.6769 20.2646 30.6631 20.286 30.6547 20.3098C30.6455 20.3335 30.6417 20.3581 30.6424 20.3834C30.6432 20.4086 30.6493 20.4324 30.6593 20.4554C30.6938 20.5297 30.752 20.5665 30.8332 20.5672C30.8608 20.5665 30.8876 20.5603 30.9121 20.5481L31.5189 20.2707V28.4556L6.56674 39.9012V31.7186L7.13216 31.4589C7.18043 31.4367 7.21338 31.4007 7.231 31.3509C7.24939 31.3011 7.24709 31.252 7.22487 31.2045C7.20265 31.1563 7.16741 31.1233 7.11761 31.1057C7.06857 31.0873 7.02031 31.0896 6.9728 31.1118L6.56674 31.2965V21.4468L7.13216 21.187C7.18043 21.1648 7.21338 21.1288 7.231 21.079C7.24939 21.0292 7.24709 20.981 7.22487 20.9327C7.20265 20.8852 7.16741 20.8522 7.11761 20.8339C7.06857 20.8162 7.02031 20.8178 6.9728 20.84L6.56674 21.0254V12.3609L31.5189 1.00343ZM31.702 52.4072L23.7976 48.584L31.7993 44.7709L39.7344 48.5519L31.702 52.4072ZM23.3433 13.5393C23.321 13.4918 23.3187 13.4435 23.3371 13.3937C23.3555 13.3447 23.3877 13.3087 23.436 13.2872L25.2663 12.449C25.3131 12.4329 25.359 12.4345 25.4042 12.4544C25.4494 12.4736 25.4824 12.5057 25.5023 12.5502C25.523 12.5954 25.526 12.6406 25.5115 12.6881C25.4969 12.7348 25.4686 12.7708 25.4257 12.7961L23.5953 13.6343C23.5708 13.645 23.544 13.6504 23.5172 13.6504C23.4352 13.6511 23.377 13.6136 23.3433 13.5393ZM27.0017 11.8629C26.9794 11.8147 26.9771 11.7664 26.9955 11.7166C27.0132 11.6668 27.0461 11.6308 27.0944 11.6086L28.9247 10.7696C28.9707 10.7543 29.0167 10.7558 29.0619 10.7758C29.1071 10.7949 29.14 10.8271 29.1607 10.8715C29.1814 10.9167 29.1844 10.9619 29.1699 11.0094C29.1553 11.0562 29.1262 11.0922 29.0841 11.1175L27.2537 11.9556C27.2292 11.9671 27.2024 11.9733 27.1748 11.974C27.0936 11.974 27.0354 11.9365 27.0017 11.8629ZM8.69819 20.2546C8.68823 20.2301 8.68286 20.2048 8.68363 20.178C8.68363 20.152 8.68976 20.1267 8.70049 20.1022C8.71121 20.0784 8.7273 20.0577 8.74646 20.0401C8.76638 20.0225 8.78936 20.0102 8.81464 20.0018L10.6419 19.1613C10.6657 19.1475 10.691 19.1391 10.7178 19.136C10.7454 19.133 10.7714 19.1353 10.7975 19.1429C10.8235 19.1514 10.8465 19.1644 10.8672 19.182C10.8879 19.2004 10.904 19.2219 10.9147 19.2464C10.9262 19.2709 10.9323 19.2969 10.9323 19.3245C10.9331 19.3513 10.9277 19.3774 10.917 19.4027C10.9062 19.428 10.8909 19.4494 10.871 19.4678C10.8511 19.4862 10.8281 19.5 10.8021 19.5084L8.97171 20.3466C8.94719 20.3588 8.92037 20.365 8.89279 20.3657C8.85372 20.3673 8.81694 20.3588 8.78323 20.3381C8.74952 20.3182 8.72424 20.2899 8.70738 20.2546H8.69819ZM12.3658 18.5752C12.3551 18.5522 12.3489 18.5277 12.3482 18.5024C12.3466 18.4772 12.3512 18.4519 12.3596 18.4281C12.3688 18.4044 12.3819 18.3829 12.3995 18.3645C12.4171 18.3454 12.4378 18.3308 12.4608 18.3209L14.2888 17.4804C14.3126 17.4666 14.3379 17.4582 14.3647 17.4551C14.3915 17.4513 14.4183 17.4543 14.4444 17.462C14.4704 17.4704 14.4934 17.4834 14.5141 17.5011C14.534 17.5195 14.5501 17.5409 14.5616 17.5654C14.5731 17.5899 14.5792 17.616 14.5792 17.6436C14.58 17.6704 14.5746 17.6964 14.5639 17.7217C14.5532 17.7462 14.5378 17.7685 14.5171 17.7868C14.4972 17.8052 14.4742 17.819 14.449 17.8275L12.6209 18.6679C12.5949 18.6794 12.568 18.6848 12.5397 18.684C12.4592 18.6848 12.401 18.648 12.3658 18.5752ZM16.0242 16.8966C16.0027 16.8491 16.0012 16.8 16.0203 16.751C16.0387 16.702 16.0717 16.6667 16.1192 16.6445L17.9495 15.804C17.9978 15.7826 18.0461 15.781 18.0951 15.7994C18.1441 15.8178 18.1801 15.8515 18.2024 15.899C18.2123 15.922 18.2184 15.9458 18.2192 15.9711C18.22 15.9963 18.2161 16.0209 18.207 16.0446C18.1985 16.0684 18.1855 16.0898 18.1679 16.1082C18.1503 16.1266 18.1303 16.1411 18.1074 16.1511L16.2793 16.9916C16.231 17.0123 16.182 17.0138 16.133 16.9954C16.0832 16.977 16.0472 16.9441 16.0242 16.8966ZM19.6849 15.2179C19.6626 15.1704 19.6604 15.1222 19.6787 15.0724C19.6971 15.0233 19.7301 14.9873 19.7776 14.9659L21.6079 14.1277C21.6309 14.1154 21.6554 14.1085 21.6815 14.1062C21.7075 14.1047 21.7328 14.1078 21.7573 14.1162C21.7818 14.1246 21.8041 14.1376 21.8232 14.1553C21.8424 14.1729 21.8577 14.1936 21.8684 14.2173C21.8791 14.2411 21.8845 14.2656 21.8853 14.2916C21.886 14.3177 21.8814 14.343 21.8715 14.3667C21.8623 14.3912 21.8477 14.4119 21.8293 14.4303C21.811 14.4487 21.7895 14.4633 21.765 14.4725L19.9354 15.3106C19.9101 15.3214 19.8841 15.3267 19.8565 15.3267C19.8197 15.3275 19.7852 15.3175 19.7546 15.2984C19.7232 15.2785 19.7002 15.2516 19.6849 15.2179ZM45.3067 15.899C45.3289 15.8508 45.3649 15.8178 45.4147 15.7994C45.4645 15.781 45.5128 15.7826 45.5618 15.804L47.4151 16.6445C47.4619 16.6667 47.4948 16.7027 47.5132 16.7518C47.5316 16.8 47.5308 16.8491 47.5101 16.8966C47.494 16.931 47.4703 16.9586 47.4381 16.9786C47.4067 16.9985 47.3715 17.0084 47.3339 17.0077C47.3063 17.0077 47.2803 17.0023 47.255 16.9916L45.4017 16.1511C45.3542 16.1289 45.3212 16.0936 45.3021 16.0446C45.2837 15.9956 45.2852 15.9465 45.3067 15.899ZM52.6855 19.2586C52.6962 19.2356 52.7108 19.215 52.7292 19.1981C52.7476 19.1805 52.7683 19.1675 52.792 19.1583C52.8158 19.1498 52.8403 19.1452 52.8656 19.1468C52.8908 19.1475 52.9154 19.1529 52.9383 19.1636L54.7917 20.0018C54.8323 20.021 54.8622 20.0508 54.8821 20.0907C54.9012 20.1305 54.9066 20.1727 54.8974 20.2163C54.8882 20.26 54.866 20.2952 54.8315 20.3236C54.797 20.3519 54.7572 20.3673 54.7128 20.368C54.6852 20.3673 54.6591 20.3611 54.6339 20.3489L52.7805 19.5107C52.7575 19.5007 52.7376 19.4862 52.72 19.4678C52.7024 19.4494 52.6893 19.428 52.6809 19.4042C52.6717 19.3812 52.6679 19.3567 52.6687 19.3314C52.6694 19.3061 52.6748 19.2816 52.6855 19.2586ZM41.6184 14.2204C41.6406 14.1721 41.6758 14.1392 41.7249 14.1208C41.7739 14.1024 41.823 14.1039 41.8705 14.1254L43.7246 14.9659C43.7721 14.9873 43.805 15.0233 43.8226 15.0724C43.841 15.1222 43.8387 15.1704 43.8173 15.2179C43.8019 15.2524 43.7782 15.2792 43.7468 15.2999C43.7154 15.3198 43.6809 15.3298 43.6433 15.329C43.6165 15.3283 43.5912 15.3221 43.5667 15.3106L41.7134 14.4702C41.6659 14.4479 41.6337 14.4127 41.6153 14.3644C41.5969 14.3162 41.5977 14.2679 41.6184 14.2204ZM48.9972 17.5777C49.0195 17.5302 49.0547 17.4972 49.1045 17.4789C49.1535 17.4605 49.2018 17.4628 49.2501 17.485L51.1034 18.3232C51.144 18.3423 51.1739 18.3714 51.1938 18.412C51.213 18.4519 51.2183 18.494 51.2091 18.5369C51.1999 18.5806 51.1777 18.6166 51.1432 18.6449C51.1088 18.6733 51.0689 18.6878 51.0245 18.6886C50.9969 18.6886 50.9709 18.6825 50.9456 18.6702L49.0922 17.8321C49.044 17.8098 49.0103 17.7746 48.9919 17.7248C48.9735 17.675 48.975 17.626 48.9972 17.5777ZM34.2418 10.8623C34.2518 10.8393 34.2656 10.8187 34.284 10.801C34.3024 10.7842 34.3238 10.7704 34.3476 10.762C34.3713 10.7528 34.3958 10.7489 34.4211 10.7497C34.4472 10.7505 34.4709 10.7566 34.4939 10.7673L36.3472 11.6063C36.3878 11.6247 36.4177 11.6545 36.4376 11.6944C36.4576 11.7342 36.4622 11.7764 36.453 11.82C36.4438 11.8637 36.4216 11.8997 36.3871 11.928C36.3526 11.9564 36.3135 11.971 36.2683 11.9717C36.2407 11.9717 36.2147 11.9648 36.1902 11.9533L34.3361 11.1152C34.3131 11.1044 34.2932 11.0899 34.2755 11.0715C34.2587 11.0531 34.2449 11.0324 34.2365 11.0087C34.2273 10.9849 34.2234 10.9604 34.2242 10.9351C34.225 10.9098 34.2311 10.8853 34.2418 10.8623ZM37.9301 12.5318C37.9401 12.5088 37.9546 12.4889 37.973 12.4713C37.9914 12.4544 38.0129 12.4406 38.0366 12.4322C38.0604 12.423 38.0849 12.4192 38.1102 12.4199C38.1354 12.4207 38.1592 12.4268 38.1822 12.4368L40.0355 13.278C40.0593 13.288 40.0799 13.3018 40.0968 13.3202C40.1144 13.3385 40.1282 13.36 40.1366 13.3837C40.1458 13.4075 40.1497 13.432 40.1489 13.4573C40.1474 13.4826 40.142 13.5071 40.1305 13.5301C40.1091 13.5776 40.0731 13.6105 40.024 13.6289C39.975 13.6481 39.9259 13.6465 39.8784 13.6251L38.0251 12.7846C38.0014 12.7739 37.9814 12.7601 37.9638 12.7409C37.947 12.7226 37.9339 12.7019 37.9248 12.6781C37.9156 12.6544 37.9117 12.6298 37.9125 12.6046C37.9133 12.5793 37.9194 12.5548 37.9301 12.5318ZM23.3341 23.8042C23.3119 23.756 23.3096 23.7069 23.3279 23.6571C23.3456 23.6081 23.3785 23.5713 23.4268 23.5491L25.264 22.7201C25.3108 22.7048 25.356 22.7063 25.4019 22.7255C25.4471 22.7454 25.4801 22.7768 25.5 22.822C25.5207 22.8665 25.5237 22.9124 25.5092 22.9592C25.4946 23.0067 25.4663 23.0427 25.4234 23.068L23.593 23.9061C23.5685 23.9176 23.5425 23.9238 23.5149 23.9245C23.4344 23.923 23.377 23.8862 23.3433 23.8134L23.3341 23.8042ZM19.6849 25.499C19.6626 25.4515 19.6604 25.4024 19.6787 25.3534C19.6971 25.3044 19.7301 25.2684 19.7776 25.2461L21.6079 24.408C21.6554 24.3865 21.7037 24.3842 21.7535 24.4026C21.8025 24.4202 21.8385 24.4532 21.86 24.5007C21.8822 24.5482 21.8845 24.5972 21.8661 24.6462C21.8485 24.6953 21.8155 24.7313 21.768 24.7535L19.9354 25.5848C19.9101 25.5955 19.8841 25.6009 19.8565 25.6009C19.7776 25.6032 19.7201 25.5695 19.6849 25.499ZM16.0242 27.1776C16.0027 27.1294 16.0012 27.0811 16.0203 27.0321C16.0387 26.983 16.0717 26.947 16.1192 26.9256L17.9495 26.0843C17.9978 26.0636 18.0461 26.0621 18.0951 26.0805C18.1441 26.0989 18.1801 26.1318 18.2024 26.1793C18.2123 26.2023 18.2184 26.2268 18.2192 26.2521C18.22 26.2774 18.2161 26.3019 18.207 26.3257C18.1985 26.3494 18.1855 26.3701 18.1679 26.3885C18.1503 26.4069 18.1303 26.4214 18.1074 26.4322L16.2793 27.2726C16.231 27.2933 16.182 27.2941 16.133 27.2765C16.0832 27.2581 16.0472 27.2251 16.0242 27.1776ZM12.3658 28.8563C12.3558 28.8333 12.3497 28.8095 12.3489 28.7835C12.3482 28.7582 12.352 28.7337 12.3612 28.7107C12.3696 28.687 12.3826 28.6655 12.4003 28.6471C12.4179 28.6287 12.4378 28.6142 12.4608 28.6042L14.2888 27.7637C14.3126 27.7492 14.3379 27.7407 14.3647 27.7377C14.3915 27.7346 14.4183 27.7369 14.4444 27.7453C14.4704 27.7538 14.4934 27.7668 14.5141 27.7844C14.534 27.802 14.5501 27.8235 14.5616 27.8488C14.5731 27.8733 14.5792 27.8993 14.5792 27.9262C14.58 27.9537 14.5746 27.9798 14.5639 28.0043C14.5532 28.0296 14.5378 28.051 14.5171 28.0702C14.4972 28.0886 14.4742 28.1016 14.449 28.1108L12.6209 28.9513C12.5949 28.962 12.568 28.9674 12.5397 28.9674C12.5014 28.9666 12.4661 28.9551 12.4347 28.9337C12.4033 28.9114 12.3803 28.8823 12.3658 28.8471V28.8563ZM8.70738 30.5349C8.69666 30.5119 8.69053 30.4882 8.68976 30.4621C8.68899 30.4369 8.69282 30.4123 8.70202 30.3886C8.71045 30.3648 8.72424 30.3441 8.74109 30.3258C8.75871 30.3074 8.7794 30.2928 8.80239 30.2829L10.6304 29.4355C10.6542 29.4217 10.6795 29.4125 10.7063 29.4094C10.7331 29.4064 10.7599 29.4087 10.786 29.4171C10.812 29.4255 10.835 29.4386 10.8557 29.4562C10.8764 29.4738 10.8917 29.4952 10.9032 29.5205C10.9147 29.545 10.9208 29.5711 10.9208 29.5979C10.9216 29.6255 10.9162 29.6515 10.9055 29.6768C10.8948 29.7013 10.8794 29.7236 10.8595 29.7419C10.8396 29.7603 10.8166 29.7741 10.7906 29.7826L8.96021 30.6207C8.9357 30.633 8.90888 30.6391 8.8813 30.6391C8.79932 30.6384 8.74109 30.6008 8.70738 30.5257V30.5349ZM27.0109 22.144C26.9886 22.0957 26.9863 22.0467 27.0047 21.9969C27.0223 21.9478 27.0553 21.9118 27.1036 21.8888L28.9339 21.0507C28.9799 21.0346 29.0258 21.0369 29.071 21.056C29.117 21.076 29.15 21.1074 29.1699 21.1526C29.1906 21.197 29.1936 21.243 29.1791 21.2897C29.1645 21.3372 29.1362 21.3732 29.0933 21.3977L27.2629 22.2367C27.2384 22.2482 27.2124 22.2543 27.1848 22.2551C27.1442 22.2558 27.1074 22.2451 27.0737 22.2229C27.0407 22.2014 27.0162 22.1716 27.0017 22.1348L27.0109 22.144ZM49.0064 27.858C49.0287 27.8105 49.0647 27.7775 49.1137 27.7599C49.1627 27.7415 49.2118 27.7438 49.2593 27.766L51.1126 28.6042C51.1532 28.6234 51.1831 28.6525 51.203 28.6923C51.2222 28.7329 51.2275 28.7743 51.2183 28.818C51.2091 28.8616 51.1869 28.8976 51.1524 28.926C51.118 28.9543 51.0781 28.9689 51.0337 28.9697C51.0061 28.9697 50.9801 28.9635 50.9548 28.9513L49.1014 28.1131C49.0762 28.1031 49.0539 28.0893 49.0348 28.0702C49.0156 28.051 49.0011 28.0288 48.9911 28.0043C48.9812 27.979 48.9766 27.953 48.9781 27.9262C48.9789 27.8986 48.9857 27.8733 48.9972 27.8488L49.0064 27.858ZM37.9301 22.8128C37.9401 22.7898 37.9546 22.7699 37.973 22.7523C37.9914 22.7347 38.0129 22.7217 38.0366 22.7125C38.0604 22.704 38.0849 22.7002 38.1102 22.701C38.1354 22.7017 38.1592 22.7071 38.1822 22.7178L40.0355 23.5583C40.0593 23.569 40.0792 23.5836 40.0968 23.602C40.1137 23.6204 40.1267 23.641 40.1359 23.6648C40.1451 23.6885 40.1489 23.7131 40.1481 23.7383C40.1474 23.7636 40.1412 23.7881 40.1305 23.8111C40.1091 23.8586 40.0731 23.8916 40.024 23.91C39.975 23.9284 39.9259 23.9268 39.8784 23.9061L38.0251 23.0649C38.0014 23.0549 37.9814 23.0404 37.9638 23.022C37.947 23.0036 37.9339 22.9829 37.9248 22.9592C37.9156 22.9354 37.9117 22.9109 37.9125 22.8856C37.9133 22.8603 37.9194 22.8358 37.9301 22.8128ZM41.6184 24.4915C41.6406 24.444 41.6758 24.411 41.7249 24.3926C41.7739 24.3743 41.823 24.375 41.8705 24.3965L43.7246 25.2369C43.7721 25.2592 43.805 25.2952 43.8226 25.3442C43.841 25.3932 43.8387 25.4423 43.8173 25.4898C43.8019 25.5235 43.7782 25.5511 43.7468 25.571C43.7154 25.5917 43.6809 25.6009 43.6433 25.6009C43.6158 25.6009 43.5897 25.5955 43.5644 25.5848L41.7111 24.7443C41.6636 24.7213 41.6314 24.6861 41.613 24.6371C41.5954 24.588 41.5969 24.539 41.6184 24.4915ZM34.2418 21.1342C34.2518 21.1112 34.2656 21.0905 34.284 21.0729C34.3024 21.0553 34.3238 21.0422 34.3476 21.0331C34.3713 21.0239 34.3958 21.02 34.4211 21.0216C34.4472 21.0223 34.4709 21.0285 34.4939 21.0392L36.3472 21.8797C36.3702 21.8904 36.3909 21.9042 36.4085 21.9226C36.4254 21.9417 36.4384 21.9624 36.4476 21.9861C36.4568 22.0099 36.4606 22.0344 36.4599 22.0597C36.4591 22.085 36.453 22.1087 36.4422 22.1325C36.4078 22.206 36.3503 22.2428 36.2683 22.2436C36.2415 22.2436 36.2147 22.2382 36.1902 22.2267L34.3361 21.3862C34.3131 21.3763 34.2932 21.3617 34.2755 21.3433C34.2587 21.325 34.2449 21.3035 34.2365 21.2798C34.2273 21.2568 34.2234 21.2323 34.2242 21.207C34.225 21.1817 34.2311 21.1572 34.2418 21.1342ZM45.3067 26.1701C45.3289 26.1226 45.3649 26.0897 45.4147 26.0713C45.4645 26.0529 45.5128 26.0537 45.5618 26.0751L47.4151 26.9156C47.4619 26.9386 47.4948 26.9738 47.5132 27.0229C47.5316 27.0719 47.5308 27.1202 47.5101 27.1684C47.494 27.2029 47.4703 27.2297 47.4381 27.2504C47.4067 27.2703 47.3715 27.2803 47.3339 27.2795C47.3063 27.2795 47.2803 27.2742 47.255 27.2634L45.4017 26.423C45.3542 26.4007 45.3212 26.3647 45.3021 26.3157C45.2837 26.2667 45.2852 26.2184 45.3067 26.1701ZM54.8775 30.528C54.843 30.6016 54.7848 30.6391 54.7036 30.6391C54.676 30.6399 54.6499 30.6338 54.6247 30.6207L52.7713 29.7826C52.7238 29.7611 52.6901 29.7251 52.6717 29.6761C52.6533 29.627 52.6549 29.578 52.6763 29.5305C52.6985 29.4822 52.7338 29.4493 52.7828 29.4301C52.8326 29.4117 52.8809 29.4133 52.9292 29.4355L54.7825 30.2737C54.8308 30.2951 54.8645 30.3311 54.8829 30.3809C54.9012 30.4307 54.8997 30.4798 54.8775 30.528ZM63.5374 44.6153C63.5374 48.0561 60.5677 51.3169 55.1786 53.7939C49.9772 56.1835 42.8994 57.6936 35.2332 58.0407H35.2072C35.1313 58.0422 35.0586 58.0292 34.9881 58.0024C34.9168 57.9748 34.854 57.935 34.7996 57.8821C34.7444 57.83 34.7015 57.7687 34.6716 57.6998C34.641 57.63 34.6249 57.5573 34.6226 57.4814C34.6211 57.4056 34.6341 57.3328 34.6617 57.2615C34.6893 57.191 34.7291 57.1282 34.7812 57.0738C34.8341 57.0186 34.8946 56.9757 34.9643 56.9451C35.0333 56.9152 35.1061 56.8984 35.1819 56.8968C50.4384 56.2027 62.3912 50.8097 62.3912 44.6245C62.3912 42.6892 61.2044 40.7417 58.9596 38.9979C58.8937 38.9542 58.8393 38.8991 58.7956 38.8324C58.7527 38.7665 58.7244 38.6937 58.7113 38.6156C58.6983 38.5374 58.7014 38.46 58.7205 38.3834C58.7397 38.306 58.7734 38.2363 58.8217 38.1735C58.8699 38.1107 58.9289 38.0601 58.9986 38.021C59.0676 37.9827 59.1419 37.9597 59.2208 37.9521C59.2997 37.9444 59.3771 37.9528 59.4522 37.9774C59.5281 38.0019 59.5955 38.0402 59.6545 38.0931C62.1966 40.0544 63.5374 42.3115 63.5374 44.6153ZM30.2448 57.5174C30.2394 57.6178 30.2096 57.7105 30.1544 57.7955C30.1 57.8798 30.028 57.9457 29.9391 57.9924L26.2577 59.9162C26.1911 59.9523 26.1198 59.9745 26.0447 59.9821C25.9689 59.9898 25.8953 59.9829 25.8225 59.9615C25.7498 59.9392 25.6846 59.9048 25.6256 59.8565C25.5667 59.809 25.5199 59.7515 25.4839 59.6849C25.4487 59.6182 25.4272 59.547 25.4195 59.4719C25.4119 59.3968 25.4188 59.3232 25.441 59.2505C25.4625 59.1784 25.4969 59.1126 25.5444 59.0536C25.5919 58.9953 25.6494 58.9478 25.7153 58.9118L27.4483 58.0062C11.7245 57.1029 0.0107422 51.4326 0.0107422 44.6153C0.0107422 42.1613 1.52084 39.7763 4.38013 37.7153C4.44142 37.6671 4.50961 37.6318 4.58469 37.6119C4.66054 37.5912 4.73639 37.5859 4.81378 37.5966C4.89116 37.6073 4.96394 37.6326 5.0306 37.6732C5.09802 37.713 5.15395 37.7651 5.19992 37.828C5.24589 37.8916 5.2773 37.9613 5.29416 38.0371C5.31178 38.1137 5.31254 38.1904 5.29875 38.267C5.2842 38.3436 5.25585 38.4148 5.21218 38.48C5.16927 38.5451 5.11487 38.5987 5.04975 38.6416C2.50305 40.4804 1.16917 42.5452 1.16917 44.6153C1.16917 50.7515 12.7527 56.0632 27.7402 56.8647L25.9773 55.6648C25.9145 55.6227 25.8624 55.5691 25.8202 55.5063C25.7789 55.4427 25.7505 55.3737 25.7367 55.2986C25.7222 55.2243 25.7229 55.15 25.7383 55.0757C25.7536 55.0014 25.7827 54.9324 25.8256 54.8696C25.8685 54.8068 25.9214 54.7547 25.985 54.7133C26.0486 54.6711 26.1175 54.6436 26.1918 54.629C26.2669 54.6152 26.3412 54.6152 26.4156 54.6313C26.4899 54.6466 26.5588 54.6757 26.6216 54.7179L29.995 57.0102C30.0778 57.0669 30.1421 57.1405 30.1866 57.2309C30.231 57.3213 30.2509 57.417 30.2448 57.5174Z" fill="url(#paint0_linear_9_190)"/>
<defs>
<linearGradient id="paint0_linear_9_190" x1="0.0107422" y1="30.0063" x2="63.5374" y2="30.0063" gradientUnits="userSpaceOnUse">
<stop stop-color="#0CBAF1"/>
<stop offset="1" stop-color="#E95CE9"/>
</linearGradient>
</defs>
</svg>
