<svg width="44" height="48" viewBox="0 0 44 48" fill="none" xmlns="http://www.w3.org/2000/svg">
<path fill-rule="evenodd" clip-rule="evenodd" d="M5.34985 6.64455C5.34985 8.43325 6.80984 9.89355 8.59867 9.89355C8.98699 9.89355 9.30179 9.57875 9.30179 9.19043C9.30179 8.8021 8.98699 8.4873 8.59867 8.4873C7.58662 8.4873 6.7561 7.65673 6.7561 6.64455V3.24827C6.7561 2.23609 7.58662 1.40552 8.59867 1.40552C9.61395 1.40552 10.444 2.23662 10.444 3.24827V4.94637C10.444 5.33469 10.7588 5.64949 11.1472 5.64949C11.5355 5.64949 11.8503 5.33469 11.8503 4.94637V3.24827C11.8503 1.45906 10.3897 -0.000725746 8.59867 -0.000725746C6.80984 -0.000725746 5.34985 1.45958 5.34985 3.24827V6.64455Z" fill="url(#paint0_linear_84_3581)"/>
<path fill-rule="evenodd" clip-rule="evenodd" d="M14.5045 6.64455C14.5045 8.43328 15.9646 9.89355 17.7534 9.89355C18.1417 9.89355 18.4565 9.57875 18.4565 9.19043C18.4565 8.8021 18.1417 8.4873 17.7534 8.4873C16.7413 8.4873 15.9108 7.6567 15.9108 6.64455V3.24827C15.9108 2.23613 16.7413 1.40552 17.7534 1.40552C18.7687 1.40552 19.5988 2.23662 19.5988 3.24827V4.94637C19.5988 5.33469 19.9136 5.64949 20.3019 5.64949C20.6902 5.64949 21.005 5.33469 21.005 4.94637V3.24827C21.005 1.45906 19.5444 -0.000725746 17.7534 -0.000725746C15.9646 -0.000725746 14.5045 1.45955 14.5045 3.24827V6.64455Z" fill="url(#paint1_linear_84_3581)"/>
<path fill-rule="evenodd" clip-rule="evenodd" d="M23.6593 6.64455C23.6593 8.43328 25.1194 9.89355 26.9082 9.89355C27.2965 9.89355 27.6113 9.57875 27.6113 9.19043C27.6113 8.8021 27.2965 8.4873 26.9082 8.4873C25.8961 8.4873 25.0656 7.6567 25.0656 6.64455V3.24827C25.0656 2.23613 25.8961 1.40552 26.9082 1.40552C27.9235 1.40552 28.7536 2.23662 28.7536 3.24827V4.94637C28.7536 5.33469 29.0684 5.64949 29.4567 5.64949C29.845 5.64949 30.1598 5.33469 30.1598 4.94637V3.24827C30.1598 1.45906 28.6992 -0.000725746 26.9082 -0.000725746C25.1194 -0.000725746 23.6593 1.45955 23.6593 3.24827V6.64455Z" fill="url(#paint2_linear_84_3581)"/>
<path fill-rule="evenodd" clip-rule="evenodd" d="M32.8141 6.64455C32.8141 8.43377 34.2747 9.89355 36.0657 9.89355C36.454 9.89355 36.7688 9.57875 36.7688 9.19043C36.7688 8.8021 36.454 8.4873 36.0657 8.4873C35.0504 8.4873 34.2203 7.65621 34.2203 6.64455V3.24827C34.2203 2.23662 35.0504 1.40552 36.0657 1.40552C37.0778 1.40552 37.9084 2.23613 37.9084 3.24827V4.94637C37.9084 5.33469 38.2232 5.64949 38.6115 5.64949C38.9998 5.64949 39.3146 5.33469 39.3146 4.94637V3.24827C39.3146 1.45955 37.8545 -0.000725746 36.0657 -0.000725746C34.2747 -0.000725746 32.8141 1.45906 32.8141 3.24827V6.64455Z" fill="url(#paint3_linear_84_3581)"/>
<path fill-rule="evenodd" clip-rule="evenodd" d="M29.9893 38.0951C30.2322 37.7922 30.1836 37.3497 29.8807 37.1067L13.0539 23.612C12.751 23.369 12.3085 23.4177 12.0655 23.7206C11.8226 24.0235 11.8712 24.4661 12.1741 24.709L29.0009 38.2038C29.3038 38.4467 29.7463 38.3981 29.9893 38.0951Z" fill="url(#paint4_linear_84_3581)"/>
<path fill-rule="evenodd" clip-rule="evenodd" d="M24.6083 25.7322C24.9113 25.9751 25.3539 25.9263 25.5967 25.6233L28.217 22.3547C28.4598 22.0517 28.4111 21.6091 28.1081 21.3663C27.8051 21.1234 27.3626 21.1721 27.1197 21.4751L24.4995 24.7438C24.2566 25.0468 24.3054 25.4893 24.6083 25.7322Z" fill="url(#paint5_linear_84_3581)"/>
<path fill-rule="evenodd" clip-rule="evenodd" d="M19.5549 26.7013C19.8474 26.9569 20.2916 26.9269 20.5471 26.6345C21.4762 25.5711 22.5944 24.2052 23.4497 22.5669C23.6294 22.2227 23.4961 21.7979 23.1518 21.6182C22.8076 21.4385 22.3829 21.5718 22.2031 21.9161C21.4269 23.403 20.398 24.6679 19.4881 25.7092C19.2326 26.0016 19.2625 26.4458 19.5549 26.7013Z" fill="url(#paint6_linear_84_3581)"/>
<path fill-rule="evenodd" clip-rule="evenodd" d="M24.7591 30.8741C25.072 31.1041 25.5121 31.0369 25.7421 30.7241C26.5602 29.6113 27.5727 28.3296 28.854 27.253C29.1513 27.0032 29.1898 26.5597 28.94 26.2624C28.6902 25.9651 28.2467 25.9266 27.9494 26.1764C26.5362 27.3638 25.4438 28.7557 24.6091 29.8911C24.3791 30.204 24.4462 30.6441 24.7591 30.8741Z" fill="url(#paint7_linear_84_3581)"/>
<path fill-rule="evenodd" clip-rule="evenodd" d="M28.0132 33.4853C28.3298 33.7102 28.7688 33.6358 28.9936 33.3192C30.0976 31.7645 31.696 29.8881 34.5897 29.7504C34.9776 29.7319 35.2771 29.4025 35.2586 29.0146C35.2402 28.6268 34.9108 28.3273 34.5229 28.3457C30.9377 28.5163 28.9964 30.8865 27.8471 32.5049C27.6222 32.8215 27.6966 33.2605 28.0132 33.4853Z" fill="url(#paint8_linear_84_3581)"/>
<path fill-rule="evenodd" clip-rule="evenodd" d="M17.3892 23.7549C17.7231 23.9531 18.1545 23.8431 18.3528 23.5092C18.7822 22.7859 19.3781 21.6129 19.1857 19.914C19.142 19.5282 18.7937 19.2508 18.4079 19.2945C18.022 19.3382 17.7446 19.6864 17.7883 20.0723C17.9306 21.3286 17.5061 22.1806 17.1436 22.7913C16.9453 23.1253 17.0553 23.5566 17.3892 23.7549Z" fill="url(#paint9_linear_84_3581)"/>
<path fill-rule="evenodd" clip-rule="evenodd" d="M8.49248 47.9736C8.769 47.9254 9.06823 47.8115 9.37103 47.6721C9.3856 47.6654 9.39994 47.6582 9.41402 47.6505L28.4836 37.2358C28.6899 37.1231 28.8263 36.9148 28.847 36.6806C28.8677 36.4464 28.77 36.2174 28.5866 36.0702L14.3482 24.6484C14.1648 24.5013 13.92 24.4556 13.6959 24.5266C13.4718 24.5976 13.2979 24.7759 13.2327 25.0018L7.20824 45.8603C7.20383 45.8756 7.19993 45.891 7.19656 45.9066C7.12296 46.2464 7.07662 46.5714 7.09153 46.8567C7.10592 47.1319 7.18605 47.5117 7.51464 47.771C7.84144 48.029 8.22714 48.0198 8.49248 47.9736ZM8.56608 46.2269L14.291 26.4054L26.8839 36.5072L8.7617 46.4045C8.66945 46.4465 8.58753 46.4809 8.51507 46.5085C8.52661 46.4273 8.54336 46.3338 8.56608 46.2269Z" fill="url(#paint10_linear_84_3581)"/>
<path fill-rule="evenodd" clip-rule="evenodd" d="M20.2367 41.7274C20.5397 41.4845 20.5885 41.042 20.3457 40.739L12.6233 31.103C12.3804 30.8 11.9379 30.7512 11.6349 30.994C11.3319 31.2369 11.2831 31.6794 11.5259 31.9824L19.2483 41.6184C19.4912 41.9214 19.9337 41.9702 20.2367 41.7274Z" fill="url(#paint11_linear_84_3581)"/>
<path fill-rule="evenodd" clip-rule="evenodd" d="M16.0646 44.0046C16.3676 43.7617 16.4162 43.3192 16.1733 43.0162L11.0339 36.6063C10.791 36.3034 10.3485 36.2547 10.0455 36.4976C9.74257 36.7405 9.69389 37.183 9.93681 37.486L15.0762 43.8959C15.3191 44.1988 15.7616 44.2475 16.0646 44.0046Z" fill="url(#paint12_linear_84_3581)"/>
<path fill-rule="evenodd" clip-rule="evenodd" d="M13.115 45.6149C13.418 45.372 13.4666 44.9294 13.2237 44.6265L9.90989 40.4942C9.66695 40.1912 9.22442 40.1426 8.92147 40.3855C8.61853 40.6285 8.56988 41.071 8.81282 41.3739L12.1266 45.5063C12.3695 45.8092 12.8121 45.8579 13.115 45.6149Z" fill="url(#paint13_linear_84_3581)"/>
<path fill-rule="evenodd" clip-rule="evenodd" d="M23.1863 40.1171C23.4894 39.8742 23.5382 39.4317 23.2954 39.1287L19.2668 34.1007C19.024 33.7976 18.5815 33.7488 18.2784 33.9916C17.9754 34.2344 17.9265 34.6769 18.1694 34.98L22.198 40.008C22.4408 40.311 22.8833 40.3599 23.1863 40.1171ZM17.0821 32.5008C17.3852 32.258 17.4341 31.8155 17.1913 31.5124L13.7474 27.2125C13.5047 26.9094 13.0622 26.8605 12.7591 27.1033C12.456 27.346 12.4071 27.7885 12.6498 28.0916L16.0937 32.3915C16.3365 32.6946 16.779 32.7435 17.0821 32.5008Z" fill="url(#paint14_linear_84_3581)"/>
<path fill-rule="evenodd" clip-rule="evenodd" d="M0.412231 41.07C0.412231 41.6921 0.918374 42.1982 1.54051 42.1982H9.20186C9.59018 42.1982 9.90498 41.8834 9.90498 41.4951C9.90498 41.1068 9.59018 40.792 9.20186 40.792H1.81848V5.64981H42.1815V40.792H19.2177C18.8294 40.792 18.5146 41.1068 18.5146 41.4951C18.5146 41.8834 18.8294 42.1982 19.2177 42.1982H42.4595C43.0816 42.1982 43.5878 41.6921 43.5878 41.07V5.37193C43.5878 4.7498 43.0817 4.24356 42.4595 4.24356H1.54051C0.918271 4.24356 0.412231 4.74981 0.412231 5.37193V41.07Z" fill="url(#paint15_linear_84_3581)"/>
<path fill-rule="evenodd" clip-rule="evenodd" d="M0.412354 15.8398C0.412354 16.2282 0.727153 16.543 1.11548 16.543H20.2542C20.6425 16.543 20.9573 16.2282 20.9573 15.8398C20.9573 15.4515 20.6425 15.1367 20.2542 15.1367H1.11548C0.727153 15.1367 0.412354 15.4515 0.412354 15.8398ZM22.7957 15.8398C22.7957 16.2282 23.1105 16.543 23.4989 16.543H42.8848C43.2731 16.543 43.5879 16.2282 43.5879 15.8398C43.5879 15.4515 43.2731 15.1367 42.8848 15.1367H23.4989C23.1105 15.1367 22.7957 15.4515 22.7957 15.8398ZM0.412354 12.5393C0.412354 12.9276 0.727153 13.2424 1.11548 13.2424H42.8848C43.2731 13.2424 43.5879 12.9276 43.5879 12.5393C43.5879 12.151 43.2731 11.8362 42.8848 11.8362H1.11548C0.727153 11.8362 0.412354 12.151 0.412354 12.5393Z" fill="url(#paint16_linear_84_3581)"/>
<defs>
<linearGradient id="paint0_linear_84_3581" x1="5.34985" y1="4.94641" x2="11.8503" y2="4.94641" gradientUnits="userSpaceOnUse">
<stop stop-color="#0CBAF1"/>
<stop offset="1" stop-color="#E95CE9"/>
</linearGradient>
<linearGradient id="paint1_linear_84_3581" x1="14.5045" y1="4.94641" x2="21.005" y2="4.94641" gradientUnits="userSpaceOnUse">
<stop stop-color="#0CBAF1"/>
<stop offset="1" stop-color="#E95CE9"/>
</linearGradient>
<linearGradient id="paint2_linear_84_3581" x1="23.6593" y1="4.94641" x2="30.1598" y2="4.94641" gradientUnits="userSpaceOnUse">
<stop stop-color="#0CBAF1"/>
<stop offset="1" stop-color="#E95CE9"/>
</linearGradient>
<linearGradient id="paint3_linear_84_3581" x1="32.8141" y1="4.94641" x2="39.3146" y2="4.94641" gradientUnits="userSpaceOnUse">
<stop stop-color="#0CBAF1"/>
<stop offset="1" stop-color="#E95CE9"/>
</linearGradient>
<linearGradient id="paint4_linear_84_3581" x1="11.9109" y1="30.9079" x2="30.1439" y2="30.9079" gradientUnits="userSpaceOnUse">
<stop stop-color="#0CBAF1"/>
<stop offset="1" stop-color="#E95CE9"/>
</linearGradient>
<linearGradient id="paint5_linear_84_3581" x1="24.345" y1="23.5492" x2="28.3715" y2="23.5492" gradientUnits="userSpaceOnUse">
<stop stop-color="#0CBAF1"/>
<stop offset="1" stop-color="#E95CE9"/>
</linearGradient>
<linearGradient id="paint6_linear_84_3581" x1="19.3145" y1="24.2066" x2="23.5297" y2="24.2066" gradientUnits="userSpaceOnUse">
<stop stop-color="#0CBAF1"/>
<stop offset="1" stop-color="#E95CE9"/>
</linearGradient>
<linearGradient id="paint7_linear_84_3581" x1="24.4724" y1="28.5111" x2="29.1048" y2="28.5111" gradientUnits="userSpaceOnUse">
<stop stop-color="#0CBAF1"/>
<stop offset="1" stop-color="#E95CE9"/>
</linearGradient>
<linearGradient id="paint8_linear_84_3581" x1="27.7172" y1="30.9801" x2="35.2594" y2="30.9801" gradientUnits="userSpaceOnUse">
<stop stop-color="#0CBAF1"/>
<stop offset="1" stop-color="#E95CE9"/>
</linearGradient>
<linearGradient id="paint9_linear_84_3581" x1="17.0449" y1="21.5717" x2="19.2228" y2="21.5717" gradientUnits="userSpaceOnUse">
<stop stop-color="#0CBAF1"/>
<stop offset="1" stop-color="#E95CE9"/>
</linearGradient>
<linearGradient id="paint10_linear_84_3581" x1="7.08875" y1="36.2464" x2="28.8497" y2="36.2464" gradientUnits="userSpaceOnUse">
<stop stop-color="#0CBAF1"/>
<stop offset="1" stop-color="#E95CE9"/>
</linearGradient>
<linearGradient id="paint11_linear_84_3581" x1="11.3715" y1="36.3607" x2="20.5001" y2="36.3607" gradientUnits="userSpaceOnUse">
<stop stop-color="#0CBAF1"/>
<stop offset="1" stop-color="#E95CE9"/>
</linearGradient>
<linearGradient id="paint12_linear_84_3581" x1="9.78223" y1="40.2511" x2="16.3279" y2="40.2511" gradientUnits="userSpaceOnUse">
<stop stop-color="#0CBAF1"/>
<stop offset="1" stop-color="#E95CE9"/>
</linearGradient>
<linearGradient id="paint13_linear_84_3581" x1="8.6582" y1="43.0002" x2="13.3783" y2="43.0002" gradientUnits="userSpaceOnUse">
<stop stop-color="#0CBAF1"/>
<stop offset="1" stop-color="#E95CE9"/>
</linearGradient>
<linearGradient id="paint14_linear_84_3581" x1="12.4955" y1="33.6102" x2="23.4498" y2="33.6102" gradientUnits="userSpaceOnUse">
<stop stop-color="#0CBAF1"/>
<stop offset="1" stop-color="#E95CE9"/>
</linearGradient>
<linearGradient id="paint15_linear_84_3581" x1="0.412231" y1="23.2209" x2="43.5878" y2="23.2209" gradientUnits="userSpaceOnUse">
<stop stop-color="#0CBAF1"/>
<stop offset="1" stop-color="#E95CE9"/>
</linearGradient>
<linearGradient id="paint16_linear_84_3581" x1="0.412354" y1="14.1896" x2="43.5879" y2="14.1896" gradientUnits="userSpaceOnUse">
<stop stop-color="#0CBAF1"/>
<stop offset="1" stop-color="#E95CE9"/>
</linearGradient>
</defs>
</svg>
