<svg width="48" height="30" viewBox="0 0 48 30" fill="none" xmlns="http://www.w3.org/2000/svg">
<path fill-rule="evenodd" clip-rule="evenodd" d="M26.0658 18.9989C24.6886 19.0017 23.3115 19.0017 21.9343 18.9989C21.546 18.9981 21.2305 19.3122 21.2297 19.7006C21.2289 20.0889 21.5431 20.4043 21.9314 20.4051C23.3105 20.4079 24.6896 20.4079 26.0687 20.4051C26.457 20.4043 26.7712 20.0889 26.7704 19.7006C26.7696 19.3122 26.4541 18.9981 26.0658 18.9989Z" fill="url(#paint0_linear_84_3552)"/>
<path fill-rule="evenodd" clip-rule="evenodd" d="M33.9835 28.2889C34.1868 27.958 34.0834 27.525 33.7525 27.3217C31.8732 26.1671 30.4573 24.2745 29.9752 21.9452C29.8965 21.5649 29.5244 21.3204 29.1441 21.3991C28.7639 21.4778 28.5194 21.8499 28.5981 22.2302C29.1623 24.9559 30.8214 27.1714 33.0164 28.5199C33.3473 28.7232 33.7803 28.6197 33.9835 28.2889Z" fill="url(#paint1_linear_84_3552)"/>
<path fill-rule="evenodd" clip-rule="evenodd" d="M7.61545 29.686C12.9525 30.9747 18.2939 27.588 19.4029 22.2298C19.4817 21.8495 19.2372 21.4775 18.8569 21.3988C18.4767 21.3201 18.1046 21.5645 18.0259 21.9448C17.0781 26.5237 12.5108 29.4219 7.94452 28.3188L7.94227 28.3183C7.88466 28.3046 7.82777 28.2908 7.76944 28.2767L7.76908 28.2766C3.48177 27.2417 0.743731 23.0361 1.5455 18.7024C2.22372 15.0369 3.14475 11.3301 4.23927 7.58747C5.24116 4.16398 8.33105 1.77595 11.8984 1.65407L11.8986 1.65407C19.9666 1.37618 28.0335 1.37618 36.1015 1.65407L36.1017 1.65407C39.669 1.77595 42.7589 4.16398 43.7608 7.58747C44.8553 11.3301 45.7764 15.0369 46.4546 18.7024C47.2563 23.0361 44.5183 27.2417 40.231 28.2766L40.2306 28.2767C40.2025 28.2835 40.1739 28.2904 40.1447 28.2974L40.1442 28.2975L40.1431 28.2978C40.1143 28.3047 40.0849 28.3117 40.0555 28.3188M7.61545 29.686C7.55566 29.6718 7.497 29.6576 7.43973 29.6437L7.43912 29.6436C7.439 29.6436 7.43888 29.6435 7.43876 29.6435C2.42816 28.4339 -0.775497 23.5178 0.162713 18.4466L0.162716 18.4466C0.85137 14.7246 1.78471 10.9707 2.88956 7.19275L2.88959 7.19263C4.06273 3.18374 7.67959 0.391222 11.8502 0.248652C19.9504 -0.030344 28.0497 -0.030344 36.1499 0.248652C40.3205 0.391224 43.9373 3.18374 45.1105 7.19263L45.1105 7.19275C46.2154 10.9707 47.1487 14.7246 47.8374 18.4466C48.7756 23.5178 45.5719 28.4339 40.5613 29.6435C40.5315 29.6507 40.5016 29.6579 40.4724 29.6649C40.443 29.672 40.4143 29.6788 40.386 29.6857L40.3858 29.6858C38.8185 30.0644 37.2502 30.0394 35.7879 29.6794C35.4108 29.5866 35.1804 29.2056 35.2732 28.8286C35.3661 28.4515 35.747 28.2211 36.1241 28.3139C37.373 28.6214 38.7126 28.6433 40.0553 28.3189" fill="url(#paint2_linear_84_3552)"/>
<path fill-rule="evenodd" clip-rule="evenodd" d="M18.814 21.3857C17.4182 21.3857 16.2866 20.2542 16.2866 18.8584C16.2866 17.4626 17.4182 16.3311 18.814 16.3311C20.2098 16.3311 21.3413 17.4626 21.3413 18.8584C21.3413 20.2542 20.2098 21.3857 18.814 21.3857ZM14.8804 18.8584C14.8804 21.0309 16.6416 22.792 18.814 22.792C20.9864 22.792 22.7476 21.0309 22.7476 18.8584C22.7476 16.6859 20.9864 14.9249 18.814 14.9249C16.6416 14.9249 14.8804 16.6859 14.8804 18.8584Z" fill="url(#paint3_linear_84_3552)"/>
<path fill-rule="evenodd" clip-rule="evenodd" d="M29.1862 21.3857C27.7904 21.3857 26.6588 20.2542 26.6588 18.8584C26.6588 17.4626 27.7904 16.3311 29.1862 16.3311C30.582 16.3311 31.7135 17.4626 31.7135 18.8584C31.7135 20.2542 30.582 21.3857 29.1862 21.3857ZM25.2526 18.8584C25.2526 21.0309 27.0138 22.792 29.1862 22.792C31.3586 22.792 33.1198 21.0309 33.1198 18.8584C33.1198 16.6859 31.3586 14.9249 29.1862 14.9249C27.0138 14.9249 25.2526 16.6859 25.2526 18.8584Z" fill="url(#paint4_linear_84_3552)"/>
<path fill-rule="evenodd" clip-rule="evenodd" d="M10.262 17.7666L10.3038 17.7666C11.8318 17.7659 13.0733 16.5462 13.1145 15.0239L13.1145 15.0238C13.1157 14.9791 13.1169 14.9345 13.1181 14.8898C13.1627 14.8886 13.2074 14.8875 13.2521 14.8863L13.2522 14.8862C14.7745 14.845 15.9943 13.6035 15.9949 12.0754V12.0337C15.9943 10.5056 14.7745 9.26414 13.2522 9.22286L13.2521 9.22286C13.2074 9.22165 13.1628 9.22047 13.1181 9.21932C13.1169 9.17462 13.1158 9.12993 13.1145 9.08523L13.1145 9.08513C13.0733 7.56286 11.8318 6.34317 10.3038 6.34241H10.262C8.73404 6.34317 7.49244 7.56282 7.45115 9.08513L7.45115 9.08523C7.44994 9.12993 7.44876 9.17462 7.44761 9.21932C7.40297 9.22048 7.35834 9.22165 7.31371 9.22286L7.31362 9.22286C5.79126 9.26414 4.57155 10.5056 4.5708 12.0336V12.0755C4.57155 13.6035 5.79126 14.845 7.31362 14.8862L7.31371 14.8863C7.35834 14.8875 7.40298 14.8886 7.44761 14.8898C7.44877 14.9345 7.44995 14.9791 7.45115 15.0238L7.45115 15.0239C7.49244 16.5462 8.73404 17.7659 10.262 17.7666ZM10.3031 16.3604H10.2627C10.2627 16.3604 10.2626 16.3604 10.2626 16.3604C10.2625 16.3604 10.2624 16.3604 10.2624 16.3604C9.50115 16.3598 8.87771 15.7518 8.85689 14.9859M10.3034 16.3604C10.3034 16.3604 10.3033 16.3604 10.3032 16.3604C10.3032 16.3604 10.3031 16.3604 10.3031 16.3604M10.3034 16.3604C11.0646 16.3598 11.688 15.7519 11.7088 14.9859L10.3034 16.3604ZM8.85689 14.9858C8.84971 14.7199 8.84347 14.4541 8.83826 14.1884C8.83085 13.811 8.52673 13.5068 8.14931 13.4992C7.88342 13.4939 7.61753 13.4877 7.35174 13.4805M11.7088 14.9858C11.716 14.7199 11.7222 14.454 11.7275 14.1882L11.7088 14.9858ZM13.2141 13.4805C12.9482 13.4877 12.6823 13.4939 12.4165 13.4992C12.0392 13.5068 11.7351 13.8109 11.7275 14.1882M13.2142 13.4805C13.9803 13.4597 14.5882 12.8363 14.5886 12.0751C14.5886 12.075 14.5886 12.0749 14.5886 12.0748V12.0343M5.97705 12.0749C5.97705 12.0749 5.97705 12.0748 5.97705 12.0748V12.0343C5.97705 12.0343 5.97705 12.0342 5.97705 12.0342C5.97705 12.0341 5.97705 12.0341 5.97705 12.034C5.97761 11.2728 6.58553 10.6494 7.35165 10.6286C7.61747 10.6214 7.88331 10.6152 8.14906 10.61C8.52659 10.6026 8.83085 10.2983 8.83826 9.92077C8.84347 9.65495 8.84971 9.38915 8.85689 9.12326M5.97705 12.0749C5.97705 12.075 5.97705 12.0751 5.97705 12.0751V12.0749ZM5.97705 12.0751C5.97761 12.8363 6.58553 13.4597 7.35165 13.4805L5.97705 12.0751ZM14.5886 12.034C14.5882 11.2729 13.9803 10.6494 13.2142 10.6286L14.5886 12.034ZM13.2141 10.6286C12.9482 10.6214 12.6824 10.6152 12.4167 10.61C12.0393 10.6026 11.7351 10.2984 11.7275 9.92101C11.7222 9.65503 11.716 9.38915 11.7088 9.12326M8.85689 9.12316C8.87772 8.35709 9.50134 7.74904 10.2627 7.74866H10.3031C11.0644 7.74904 11.688 8.35705 11.7088 9.12316" fill="url(#paint5_linear_84_3552)"/>
<path fill-rule="evenodd" clip-rule="evenodd" d="M40.4572 10.8584C39.9467 11.3688 39.119 11.3688 38.6086 10.8584C38.0981 10.3479 38.0981 9.52023 38.6086 9.00975C39.119 8.49928 39.9467 8.49928 40.4572 9.00975C40.9676 9.52023 40.9676 10.3479 40.4572 10.8584ZM37.6142 11.8527C38.6738 12.9124 40.3919 12.9124 41.4515 11.8527C42.5112 10.7931 42.5112 9.07504 41.4515 8.01539C40.3919 6.95574 38.6738 6.95574 37.6142 8.01539C36.5545 9.07504 36.5545 10.7931 37.6142 11.8527Z" fill="url(#paint6_linear_84_3552)"/>
<path fill-rule="evenodd" clip-rule="evenodd" d="M36.2164 15.0996C35.706 15.61 34.8783 15.61 34.3678 15.0996C33.8574 14.5891 33.8574 13.7614 34.3678 13.251C34.8783 12.7405 35.706 12.7405 36.2164 13.251C36.7269 13.7614 36.7269 14.5891 36.2164 15.0996ZM33.3735 16.0939C34.4331 17.1536 36.1512 17.1536 37.2108 16.0939C38.2705 15.0343 38.2705 13.3162 37.2108 12.2566C36.1512 11.1969 34.4331 11.1969 33.3735 12.2566C32.3138 13.3162 32.3138 15.0343 33.3735 16.0939Z" fill="url(#paint7_linear_84_3552)"/>
<path fill-rule="evenodd" clip-rule="evenodd" d="M20.0294 10.7577C20.0294 11.8623 20.9249 12.7578 22.0296 12.7578H26.1901C27.2948 12.7578 28.1903 11.8623 28.1903 10.7577C28.1903 9.65293 27.2948 8.75741 26.1901 8.75741H22.0296C20.9249 8.75741 20.0294 9.65293 20.0294 10.7577ZM22.0296 11.3516C21.7016 11.3516 21.4357 11.0857 21.4357 10.7577C21.4357 10.4295 21.7016 10.1637 22.0296 10.1637H26.1901C26.5181 10.1637 26.784 10.4295 26.784 10.7577C26.784 11.0857 26.5181 11.3516 26.1901 11.3516H22.0296Z" fill="url(#paint8_linear_84_3552)"/>
<path fill-rule="evenodd" clip-rule="evenodd" d="M16.4456 5.43393C16.6281 5.09119 16.4983 4.66536 16.1555 4.4828C15.4411 4.10223 14.9353 3.37811 14.8575 2.521C14.8094 1.97173 14.7824 1.42425 14.7797 0.87926C14.7777 0.490939 14.4614 0.177707 14.073 0.179636C13.6847 0.181564 13.3715 0.497924 13.3734 0.886244C13.3763 1.47341 13.4055 2.05997 13.4567 2.64474L13.4569 2.64666C13.5782 3.98853 14.3716 5.12591 15.4944 5.72396C15.8372 5.90652 16.263 5.77667 16.4456 5.43393Z" fill="url(#paint9_linear_84_3552)"/>
<path fill-rule="evenodd" clip-rule="evenodd" d="M30.7891 4.76659C26.7301 4.92533 22.6704 4.94213 18.6107 4.81515C18.2226 4.80301 17.8981 5.10781 17.886 5.49595C17.8738 5.88408 18.1786 6.20857 18.5668 6.22071C22.6595 6.34873 26.7522 6.33178 30.8439 6.17177M33.1424 2.52134C33.031 3.75891 32.0258 4.71855 30.7893 4.76658L30.7891 4.76659M33.1424 2.52134C33.1905 1.97202 33.2176 1.42449 33.2203 0.879438C33.2222 0.491117 33.5386 0.177885 33.9269 0.179814C34.3152 0.181743 34.6285 0.498102 34.6266 0.886422C34.6236 1.47359 34.5945 2.06015 34.5433 2.64492L34.5431 2.64643C34.3693 4.58286 32.7928 6.09597 30.844 6.17177" fill="url(#paint10_linear_84_3552)"/>
<defs>
<linearGradient id="paint0_linear_84_3552" x1="21.2297" y1="19.703" x2="26.7704" y2="19.703" gradientUnits="userSpaceOnUse">
<stop stop-color="#0CBAF1"/>
<stop offset="1" stop-color="#E95CE9"/>
</linearGradient>
<linearGradient id="paint1_linear_84_3552" x1="28.5834" y1="25.0042" x2="34.0877" y2="25.0042" gradientUnits="userSpaceOnUse">
<stop stop-color="#0CBAF1"/>
<stop offset="1" stop-color="#E95CE9"/>
</linearGradient>
<linearGradient id="paint2_linear_84_3552" x1="-0.000244141" y1="14.9997" x2="48.0003" y2="14.9997" gradientUnits="userSpaceOnUse">
<stop stop-color="#0CBAF1"/>
<stop offset="1" stop-color="#E95CE9"/>
</linearGradient>
<linearGradient id="paint3_linear_84_3552" x1="14.8804" y1="18.8584" x2="22.7476" y2="18.8584" gradientUnits="userSpaceOnUse">
<stop stop-color="#0CBAF1"/>
<stop offset="1" stop-color="#E95CE9"/>
</linearGradient>
<linearGradient id="paint4_linear_84_3552" x1="25.2526" y1="18.8584" x2="33.1198" y2="18.8584" gradientUnits="userSpaceOnUse">
<stop stop-color="#0CBAF1"/>
<stop offset="1" stop-color="#E95CE9"/>
</linearGradient>
<linearGradient id="paint5_linear_84_3552" x1="4.5708" y1="12.0545" x2="15.9949" y2="12.0545" gradientUnits="userSpaceOnUse">
<stop stop-color="#0CBAF1"/>
<stop offset="1" stop-color="#E95CE9"/>
</linearGradient>
<linearGradient id="paint6_linear_84_3552" x1="36.8195" y1="9.93405" x2="42.2463" y2="9.93405" gradientUnits="userSpaceOnUse">
<stop stop-color="#0CBAF1"/>
<stop offset="1" stop-color="#E95CE9"/>
</linearGradient>
<linearGradient id="paint7_linear_84_3552" x1="32.5787" y1="14.1753" x2="38.0055" y2="14.1753" gradientUnits="userSpaceOnUse">
<stop stop-color="#0CBAF1"/>
<stop offset="1" stop-color="#E95CE9"/>
</linearGradient>
<linearGradient id="paint8_linear_84_3552" x1="20.0294" y1="10.7576" x2="28.1903" y2="10.7576" gradientUnits="userSpaceOnUse">
<stop stop-color="#0CBAF1"/>
<stop offset="1" stop-color="#E95CE9"/>
</linearGradient>
<linearGradient id="paint9_linear_84_3552" x1="13.3734" y1="2.99313" x2="16.5282" y2="2.99313" gradientUnits="userSpaceOnUse">
<stop stop-color="#0CBAF1"/>
<stop offset="1" stop-color="#E95CE9"/>
</linearGradient>
<linearGradient id="paint10_linear_84_3552" x1="17.8856" y1="3.24273" x2="34.6266" y2="3.24273" gradientUnits="userSpaceOnUse">
<stop stop-color="#0CBAF1"/>
<stop offset="1" stop-color="#E95CE9"/>
</linearGradient>
</defs>
</svg>
